# xmcd
#
# Track frame offsets: 
#        150
#        15075
#        25861
#        42871
#        58046
#        74163
#        86842
#        102489
#        116477
#
# Disc length: 1712 seconds
#
# Revision: 0
# Processed by: cddbd v1.5.2PL0 Copyright (c) Steve Scherf et al.
# Submitted via: ExactAudioCopyFreeDBPlugin 1.0
#
DISCID=7306ae09
DTITLE=Maggie MacKay - Waiting On Roses
DYEAR=1900
DGENRE=Country
TTITLE0=Redbird
TTITLE1=Bristoltown
TTITLE2=Isn't Me
TTITLE3=Whiskey And Wine
TTITLE4=Waiting On Roses
TTITLE5=Down In West Virginia
TTITLE6=Bad Water
TTITLE7=Carolina Blue
TTITLE8=Cat In The Tub
EXTD=
EXTT0=
EXTT1=
EXTT2=
EXTT3=
EXTT4=
EXTT5=
EXTT6=
EXTT7=
EXTT8=
PLAYORDER=
